<svg id="my-logo" data-name="my-logo" xmlns="http://www.w3.org/2000/svg" viewBox="0 0 439.95 54.9"><defs><style>.cls-1{fill:#58697a;}</style></defs><title>my-logo</title><path class="cls-1" d="M146.57,159.9q-0.94,1.73-2.93,5.21-4.8-.23-6.71-0.23a87.2,87.2,0,0,0-14.41,1.32,69.18,69.18,0,0,0,.73-10,31,31,0,0,0-.91-8.47q-4.83-.47-15.06-1.61-1,3.43-2.23,6.88a39.06,39.06,0,0,1-3.11,6.74,69.67,69.67,0,0,0,8.94.76,47.76,47.76,0,0,0-.56,6.91q-6.65-2.23-12.42-3.66-3.84-1-9.84-2.05,0.82-1.05,2-2.7l1.55-2.14q1.05,0.44,3.37,1.49,4.42-6.09,8-17.7,3.75-12.16,4-20,4.37-.53,8.09-1.32a81.85,81.85,0,0,0,8.29-2.34q4.34,7.06,9.52,21.3,2.37,6.88,6.3,18.22,0.56,1.52,3.25,2.37Zm-22.38-26.22q0-4-5.45-4a12.69,12.69,0,0,0-7.15,2.11q-3.34,2.2-3.34,5.07,0,3.81,6.53,3.81Q124.19,140.65,124.19,133.68Z" transform="translate(-88.07 -116.34)"/><path class="cls-1" d="M167.29,166.93a19.23,19.23,0,0,0-7.73-1.7A24.83,24.83,0,0,0,148.74,168a0.79,0.79,0,0,1-.53.15,0.53,0.53,0,0,1,0-.56Q152.05,152,152.05,142a62,62,0,0,0-2.23-16.7,2.54,2.54,0,0,0-1.64-1.7,14.65,14.65,0,0,0-3.4-.53q-1.11-1-.91-4.78a4.84,4.84,0,0,0,1,.06q4.34,0,19.13-1.64a56.33,56.33,0,0,1,2,15.5q0,15.7-5.89,27.36a9.63,9.63,0,0,1,4.25-1,7.19,7.19,0,0,1,2.9.53v7.82Z" transform="translate(-88.07 -116.34)"/><path class="cls-1" d="M212.75,146.89q0,1.49-.12,3.52,0,0.35-.29.26-5-1.11-16.32-3-10.08-1.61-10.55-1.61-0.67,0-.67,5.51,0,6.94,3,10.37a8.15,8.15,0,0,0,5.95,2.78,8.9,8.9,0,0,0,3.78-.62,0.86,0.86,0,0,0,.67-0.53,0.4,0.4,0,0,0-.35-0.29,12.68,12.68,0,0,1-6.27-2.86,6.65,6.65,0,0,1-2.43-5.14,3.44,3.44,0,0,1,2.12-3,12.16,12.16,0,0,1,5.79-1.16,29,29,0,0,1,5.33.53q7.56,1.47,7.56,6.06a5.67,5.67,0,0,1-.7,2.64,12.36,12.36,0,0,1-4.86,5.27q-4.22,2.29-12.83,2.29a19.3,19.3,0,0,1-15.82-7.32,21.76,21.76,0,0,1-5.07-14.09q0-14.5,23.7-14.5,13.74,0,16.9,6.88A19.28,19.28,0,0,1,212.75,146.89Zm-11.22-6.74q0-1.64-2.14-2.68a13,13,0,0,0-5.65-1,29.34,29.34,0,0,0-7.12.76q-3.54.88-3.54,2.37,0,3.78,12.1,3.78Q201.53,143.35,201.53,140.16Z" transform="translate(-88.07 -116.34)"/><path class="cls-1" d="M261.86,165.06q-14.85,1.93-24.67,4-1-1.64-2.75-4.8a24.86,24.86,0,0,0,4-.32q2.43-.44,2.43-1.17,0-2.81-5.39-7.73-3.84,3.37-8.76,7.85a1.16,1.16,0,0,0-.35.79q0,1.14,2,2.93,0.29,0.26-.12.67-0.85.79-2.29,2.29-2.55-.91-8.09-2.58l-6.53-1.93q3-2.34,10.22-7.35,6.65-4.69,10.17-7.47-9.23-10.14-12.42-11.69a1.44,1.44,0,0,0-1.2-.06q-1.05.44-3.37,1.73-0.32-2.23-1-5.39a100.72,100.72,0,0,0,12-1.76,71.47,71.47,0,0,0,10.93-3.57q0.62,2.05,1.67,5.33h-1.32q-3.11,0-3.11.59t2.2,3.54q2,2.67,3.54,4.39,3.9-3.34,5-4.42a19.49,19.49,0,0,0,2.58-2.9,2.41,2.41,0,0,0,.44-1.44,2,2,0,0,0-1.26-2.05q-0.44-.18-0.06-0.85l1.2-2q2.37,0.76,7,2.67t7,2.67a178.44,178.44,0,0,0-18.13,12.95q2.46,2.31,5.83,6,2.81,3.08,5.65,6.15a3.26,3.26,0,0,0,1.9,1.29,15.47,15.47,0,0,0,3.72-.85Q260.71,161,261.86,165.06Z" transform="translate(-88.07 -116.34)"/><path class="cls-1" d="M311.89,132.6a18.82,18.82,0,0,1-1.44,6.91q-4.83,12.1-15.85,12.1a17.61,17.61,0,0,1-8.38-2.05,31.8,31.8,0,0,1-5.24-3.81,77.59,77.59,0,0,0,7.09,19.31q-12,2.4-24.55,5.16a8.51,8.51,0,0,1-.29-2.29q0-1.52.56-1.73,1.05-.29,3.11-1t2.2-2.67q0-.26,0-0.56a166.36,166.36,0,0,1-1.7-20.71,79.48,79.48,0,0,1,1.58-16,10.66,10.66,0,0,1-3.54.67,6.5,6.5,0,0,1-3.54-.91l0.53-7.38a36.42,36.42,0,0,0,16.52,4.13q2.64,0,8.51-.59t8.89-.59q8.06,0,12.07,3.57A10.58,10.58,0,0,1,311.89,132.6ZM305.19,134q0-2.2-3.54-3.49a26.83,26.83,0,0,0-9.05-1.26,25.9,25.9,0,0,0-11.16,2.34q-4.8,2.23-4.8,4.75,0,1.58,4.25,2.78a29.38,29.38,0,0,0,8.12,1.11,31.3,31.3,0,0,0,10.78-1.87Q305.19,136.44,305.19,134Z" transform="translate(-88.07 -116.34)"/><path class="cls-1" d="M362.52,165.18a8,8,0,0,0-4.48-1,33.92,33.92,0,0,0-8.47,1.23,27.66,27.66,0,0,0-7.38,2.87,40.76,40.76,0,0,0,1-6.56c0-.33-0.06-0.49-0.18-0.47a1.31,1.31,0,0,0-.38.23,22.65,22.65,0,0,1-11.75,4.92,45.17,45.17,0,0,1-5.51.41q-6.68,0-9.58-2.84-2.61-2.55-2.61-7.82a38.81,38.81,0,0,1,.53-6.06,22,22,0,0,1,4.69-10.84,14,14,0,0,1,11.1-5.07q7.32,0,14.27,6.74a15.22,15.22,0,0,0-.82-4.13,19.92,19.92,0,0,0-2.05-4.63q14.41-2.2,19.92-4.22a13.49,13.49,0,0,1,.53,3.72,3.06,3.06,0,0,1-.35,1.88q-4.31,1.47-4.31,2.64v0.06q0,1,.09,3t0.09,3.19q0,9.4-2.4,15.53a8.54,8.54,0,0,1,4.6-1.2,10,10,0,0,1,2.61.32Zm-17-16.38q0-1.23-2.46-2.05a21.75,21.75,0,0,0-6.8-.88,27.87,27.87,0,0,0-10.55,2.05q-4.92,2-4.92,4.07,0,1.64,3.49,2.64a27.78,27.78,0,0,0,7.44.88,20.48,20.48,0,0,0,9.46-2.34Q345.5,150.91,345.5,148.8Z" transform="translate(-88.07 -116.34)"/><path class="cls-1" d="M409.39,168.37q-0.44,1.14-1.08,2.87l-18-3.37q3-4.8,3-14.94v-2.7q-0.21-4.8-2.52-4.8a4.58,4.58,0,0,0-1.93.62q-4.89,2.46-6.94,10.72,0.06,2.84,2.7,10.69a32.54,32.54,0,0,0-13.39-3q-4.45,0-6.18,1.55l0.06-6.91a5.86,5.86,0,0,1,2.34-.41,10.38,10.38,0,0,1,4.39,1.08q-1.64-2.31-3-11.48-0.79-5.68-1.08-10-0.15-2.34-2.81-2.78-0.88-.09-2.58-0.41-0.79-.23-0.79-2.58a5.09,5.09,0,0,1,.12-1.2q0.56,0.29,23.17,1.79-3.78,6-3.78,15.73a31.31,31.31,0,0,1,13-17.17A8.83,8.83,0,0,1,398.7,130q3.43,0,5.1,4.63a28.61,28.61,0,0,1,1.38,9.7,44.77,44.77,0,0,1-.23,4.57q-0.85,8-.85,12.36,0,4.07.79,5.63Q406.52,167.49,409.39,168.37Z" transform="translate(-88.07 -116.34)"/><path class="cls-1" d="M438.54,165.73a70.55,70.55,0,0,0-12.66-1.08,107.23,107.23,0,0,0-18.11,2.14q0.44-2.17,1-5,4.69-.56,6.11-2.24t2.39-6.25a40,40,0,0,0,.94-8.47q0-4.39-3.72-4.39a9.15,9.15,0,0,0-2.23.26,14.66,14.66,0,0,1-1.61-5.07,65.44,65.44,0,0,0,22.44-4,0.67,0.67,0,0,1,.12.5,16.54,16.54,0,0,1-.29,2.34A100.34,100.34,0,0,0,431,151.73q0,4.78,1.14,6.24a2.37,2.37,0,0,0,2,.91,8.75,8.75,0,0,0,3.34-.79q0.53-.2.62,0.5A71.52,71.52,0,0,1,438.54,165.73Zm-0.23-41.54q0,2-4.51,3.34a28.44,28.44,0,0,1-8.44,1.23,13.42,13.42,0,0,1-6.83-1.55,5.74,5.74,0,0,1-3.08-5.21q0-4.39,10.14-4.39a18.62,18.62,0,0,1,9.29,2.08Q438.31,121.61,438.31,124.19Z" transform="translate(-88.07 -116.34)"/><path class="cls-1" d="M482.11,144.11q0,6.74-10.2,6.74a17.52,17.52,0,0,1-8.44-1.82q-3.13-1.7-3.13-4,0-3.66,3.84-5.77a16.6,16.6,0,0,1,8.09-1.85q0.29,0,.29-0.12,0-.44-2.17-1.14a16.12,16.12,0,0,0-5.19-.85q-11.84,0-11.84,10.63a24.4,24.4,0,0,0,.18,2.7q0.88,7.41,3.16,10.2a6,6,0,0,0,4.89,2.05,22.25,22.25,0,0,0,9.29-2,17.1,17.1,0,0,0,6.18-4.45,0.22,0.22,0,0,1,.23.18q-2.72,11.51-13.56,12.95a43.46,43.46,0,0,1-5.57.35q-19,0-19-17.7,0-8.61,4.69-12.74,4.42-3.9,14.33-4.89,2.4-.23,4.69-0.23,8.26,0,13.71,2.93,4.83,2.61,5.36,6.18A18.67,18.67,0,0,1,482.11,144.11Z" transform="translate(-88.07 -116.34)"/><path class="cls-1" d="M528,167.64q-0.35,1-1,2.93-5.54-1.29-17.17-3.9,2.72-5.24,2.72-13.48a25.2,25.2,0,0,0-.62-6.88,2.12,2.12,0,0,0-2.11-1.7q-2.61,0-5.21,3.25a19.23,19.23,0,0,0-3.66,8.14q0.06,2.84,2.72,10.72a30.22,30.22,0,0,0-12.57-2.87,12.06,12.06,0,0,0-6.59,1.55l0.06-6.94A5.8,5.8,0,0,1,487,158a10.38,10.38,0,0,1,4.39,1.08,107.5,107.5,0,0,1-3.49-18.6,150.13,150.13,0,0,1-1.2-17.14,2.39,2.39,0,0,0-1-2.2,6.82,6.82,0,0,0-2.4-.7l-2.08-.35q-0.73-.15-0.73-2.58a3.57,3.57,0,0,1,.12-1.2q2.08,0.35,12.07,1l12.71,0.85A75.33,75.33,0,0,0,500,146.28q0,1.93.12,3.84a40.74,40.74,0,0,1,6.39-12.83,27.69,27.69,0,0,1,6.86-6.74,8.07,8.07,0,0,1,4.22-1.49q3.31,0,5,4.75a29.77,29.77,0,0,1,1.38,9.84q0,2.84-.18,4.57-1,9.05-1,12.33a14.31,14.31,0,0,0,.82,5.77A23.78,23.78,0,0,0,528,167.64Z" transform="translate(-88.07 -116.34)"/></svg>